<?xml version="1.0"?>
<svg width="64" height="64" xmlns="http://www.w3.org/2000/svg" xmlns:svg="http://www.w3.org/2000/svg">
 <g>
  <title>Layer 1</title>
  <g id="svg_1">
   <path fill="#bfbfbf" id="svg_2" d="m59.971,31.899887l4.029,-23.4l-8.473,3.123c-5.953,-7.051 -14.744,-11.198 -24.052,-11.198c-17.357,0 -31.475,14.12 -31.475,31.475s14.118,31.475 31.475,31.475c7.105,0 13.81,-2.313 19.392,-6.686l-3.672,-4.686c-4.523,3.543 -9.961,5.416 -15.72,5.416c-14.073,0.001 -25.522,-11.447 -25.522,-25.519s11.449,-25.521 25.522,-25.521c6.81,0 13.281,2.732 18.027,7.467l-7.785,2.869l18.254,15.185z"/>
   <g id="svg_3">
    <path fill="#bfbfbf" id="svg_4" d="m22.811,19.059l0,-4.467c13.585,0 24.638,11.053 24.638,24.639l-4.465,0c0,-11.124 -9.05,-20.172 -20.173,-20.172z"/>
    <path fill="#bfbfbf" id="svg_5" d="m22.811,23.512c8.67,0 15.72,7.051 15.72,15.719l-4.465,0c0,-6.207 -5.048,-11.254 -11.255,-11.254l0,-4.465z"/>
    <circle fill="#bfbfbf" id="svg_6" r="6.262" cy="39.23" cx="22.811"/>
   </g>
  </g>
 </g>
</svg>